# AST/ASF file generated using VICON BodyLanguage
# -----------------------------------------------
:version 1.10
:name VICON
:units
  mass 1.0
  length 0.45
  angle deg
:documentation
   .ast/.asf automatically generated from VICON data using
   VICON BodyBuilder and BodyLanguage model FoxedUp or BRILLIANT.MOD
:root
   order TX TY TZ RX RY RZ
   axis XYZ
   position 0 0 0  
   orientation 0 0 0 
:bonedata
  begin
     id 1 
     name lhipjoint
     direction 0.584852 -0.759097 0.285867 
     length 2.43633 
     axis 0 0 0  XYZ
  end
  begin
     id 2 
     name lfemur
     direction 0.34202 -0.939693 0  
     length 7.14704  
     axis 0 0 20  XYZ
    dof rx ry rz
    limits (-160.0 20.0)
           (-70.0 70.0)
           (-60.0 70.0)
  end
  begin
     id 3 
     name ltibia
     direction 0.342022 -0.939692 0   
     length 7.68483   
     axis 0 0 20   XYZ
    dof rx
    limits (-10.0 170.0)
  end
  begin
     id 4 
     name lfoot
     direction 0.0999605 -0.274639 0.956337   
     length 2.40452   
     axis -90 7.62852e-016 20   XYZ
    dof rx rz
    limits (-45.0 90.0)
           (-70.0 20.0)
  end
  begin
     id 5 
     name ltoes
     direction 1.53468e-011 -4.21881e-011 1   
     length 1.19837   
     axis -90 7.62852e-016 20   XYZ
    dof rx
    limits (-90.0 20.0)
  end
  begin
     id 6 
     name rhipjoint
     direction -0.569886 -0.769002 0.289597   
     length 2.40495  
     axis 0 0 0  XYZ 
  end
  begin
     id 7 
     name rfemur
     direction -0.34202 -0.939693 0   
     length 7.45086   
     axis 0 0 -20   XYZ
    dof rx ry rz
    limits (-160.0 20.0)
           (-70.0 70.0)
           (-70.0 60.0)
  end
  begin
     id 8 
     name rtibia
     direction -0.34202 -0.939693 0   
     length 7.76831   
     axis 0 0 -20   XYZ
    dof rx
    limits (-10.0 170.0)
 end
 begin
     id 9 
     name rfoot
     direction -0.0798572 -0.219406 0.97236   
     length 2.35911  
     axis -90 -7.62852e-016 -20   XYZ
    dof rx rz
    limits (-45.0 90.0)
           (-20.0 70.0)
  end
  begin
     id 10 
     name rtoes
     direction -1.53469e-011 -4.21728e-011 1   
     length 1.18261   
     axis -90 -7.62852e-016 -20   XYZ
    dof rx
    limits (-90.0 20.0)
  end
  begin
     id 11 
     name lowerback
     direction 0.0242088 0.999437 0.0232389   
     length 2.1561   
     axis 0 0 0   XYZ
    dof rx ry rz
    limits (-20.0 45.0)
           (-30.0 30.0)
           (-30.0 30.0)
  end
  begin
     id 12 
     name upperback
     direction -0.0356893 0.999013 -0.0264323   
     length 2.14431   
     axis 0 0 0   XYZ
    dof rx ry rz
    limits (-20.0 45.0)
           (-30.0 30.0)
           (-30.0 30.0)
  end
  begin
     id 13 
     name thorax
     direction -0.0472163 0.998194 -0.0371284   
     length 2.16169   
     axis 0 0 0   XYZ
    dof rx ry rz
    limits (-20.0 45.0)
           (-30.0 30.0)
           (-30.0 30.0)
  end
  begin
     id 14 
     name lowerneck
     direction 0.00863244 0.999921 0.00911972   
     length 1.58651   
     axis 0 0 0   XYZ
    dof rx ry rz
    limits (-20.0 45.0)
           (-30.0 30.0)
           (-30.0 30.0)
  end
  begin
     id 15 
     name upperneck
     direction 0.149523 0.979068 -0.138086   
     length 1.57486   
     axis 0 0 0   XYZ
    dof rx ry rz
    limits (-20.0 45.0)
           (-30.0 30.0)
           (-30.0 30.0)
  end
  begin
     id 16
     name head
     direction 0.0445219 0.997708 -0.0509576  
     length 1.6019  
     axis 0 0 0   XYZ
    dof rx ry rz
    limits (-20.0 45.0)
           (-30.0 30.0)
           (-30.0 30.0)
  end
  begin
     id 17 
     name lclavicle
     direction 0.911271 0.381667 -0.154644  
     length 3.80848  
     axis 0 0 0   XYZ
    dof ry rz
    limits (-20.0 10.0)
           (0.0 20.0)
  end
  begin
     id 18 
     name lhumerus
     direction 1 -4.49003e-011 2.1308e-027   
     length 5.19069   
     axis 180 -30 -90   XYZ
    dof rx ry rz
    limits (-60.0 90.0)
           (-90.0 90.0)
           (-90.0 90.0)
  end
  begin
     id 19
     name lradius
     direction 1 -4.48914e-011 4.01554e-027   
     length 3.30016   
     axis 180 -30 -90   XYZ
    dof rx
    limits (-10.0 170.0)
  end
  begin
     id 20
     name lwrist
     direction 1 -4.49003e-011 1.1934e-026   
     length 1.65008   
     axis -8.46377e-015 90 90   XYZ
    dof ry
    limits (-180.0 0.0)
 end
  begin
     id 21 
     name lhand
     direction 1 -4.49034e-011 2.38659e-026   
     length 0.707698   
     axis -1.52313e-014 90 90   XYZ
    dof rx rz
    limits (-90.0 90.0)
           (-45.0 45.0)
  end
  begin
     id 22 
     name lfingers
     direction 1 -4.48691e-011 4.77775e-026   
     length 0.570564   
     axis -3.04623e-014 90 90   XYZ
    dof rx
    limits (0.0 90.0)
  end
  begin
     id 23
     name lthumb
     direction 0.707107 -6.34832e-011 0.707107   
     length 0.819219   
     axis -90 45 -1.62303e-014   XYZ
    dof rx rz
    limits (-45.0 45.0)
           (-45.0 45.0)
  end
  begin
     id 24 
     name rclavicle
     direction -0.815579 0.573708 -0.0754329   
     length 3.54371  
     axis 0 0 0   XYZ 
    dof ry rz
    limits (-10.0 20.0)
           (-20.0 0.0)
  end
  begin
     id 25 
     name rhumerus
     direction -1 -4.48956e-011 3.05351e-028  
     length 5.23924   
     axis 180 30 90   XYZ
    dof rx ry rz
    limits (-90.0 60.0)
           (-90.0 90.0)
           (-90.0 90.0)
  end
  begin
     id 26 
     name rradius
     direction -1 -4.49013e-011 3.53849e-027   
     length 3.32953   
     axis 180 30 90   XYZ
    dof rx
    limits (-10.0 170.0)
  end
  begin
     id 27 
     name rwrist
     direction -1 -4.48901e-011 1.19374e-026   
     length 1.66477   
     axis -8.46377e-015 -90 -90   XYZ
    dof ry
    limits (-180.0 0.0)
  end
  begin
     id 28
     name rhand
     direction -1 -4.48877e-011 2.38764e-026   
     length 0.607414   
     axis -1.52313e-014 -90 -90   XYZ
    dof rx rz
    limits (-90.0 90.0)
           (-45.0 45.0)
  end
  begin
     id 29
     name rfingers
     direction -1 -4.48882e-011 4.77521e-026   
     length 0.489712   
     axis -3.04623e-014 -90 -90   XYZ
    dof rx
    limits (0.0 90.0)
  end
  begin
     id 30
     name rthumb
     direction -0.707107 -6.34974e-011 0.707107   
     length 0.703132   
     axis -90 -45 1.62303e-014   XYZ
    dof rx rz
    limits (-45.0 45.0)
           (-45.0 45.0)
  end
:hierarchy
  begin
    root lhipjoint rhipjoint lowerback
    lhipjoint lfemur
    lfemur ltibia
    ltibia lfoot
    lfoot ltoes
    rhipjoint rfemur
    rfemur rtibia
    rtibia rfoot
    rfoot rtoes
    lowerback upperback
    upperback thorax
    thorax lowerneck lclavicle rclavicle
    lowerneck upperneck
    upperneck head
    lclavicle lhumerus
    lhumerus lradius
    lradius lwrist
    lwrist lhand lthumb
    lhand lfingers
    rclavicle rhumerus
    rhumerus rradius
    rradius rwrist
    rwrist rhand rthumb
    rhand rfingers
  end

#!OML:ASF E:\VariousWalksJay\Project 1\Capture day 1\Session 1\Actor2.ASF
:FULLY-SPECIFIED
:DEGREES
526
root 13.5275 15.1982 -3.43494 0.306878 -26.6372 -0.245481
lowerback 18.6503 -1.95945 2.35015
upperback 15.725 -2.60316 -2.17343
thorax 6.51139 -1.13291 -3.34335
lowerneck 6.76717 -1.40278 -0.213542
upperneck -14.4502 -0.532569 10.2338
head -5.43278 -1.0074 3.28891
rclavicle 4.41302e-014 -3.06128e-014
rhumerus -46.868 24.6393 -90.1625
rradius 61.3476
rwrist 5.72632
rhand -8.77573 -12.1547
rfingers 7.12502
rthumb 17.1623 -41.4168
lclavicle 4.41302e-014 -3.06128e-014
lhumerus 20.7963 -23.6879 63.2782
lradius 73.3416
lwrist 83.0502
lhand -39.3393 5.07614
lfingers 7.12502
lthumb -12.3308 34.6925
rfemur -48.4539 2.79828 16.8139
rtibia 19.4371
rfoot -26.652 -10.9309
rtoes -30.106
lfemur -28.1774 9.73521 -27.7406
ltibia 75.8148
lfoot -31.0756 7.51179
ltoes -20.9501
527
root 13.4724 15.1812 -3.34468 0.56338 -26.5285 -0.251561
lowerback 18.4524 -1.97479 2.37221
upperback 15.6617 -2.6189 -2.16965
thorax 6.53697 -1.13702 -3.3537
lowerneck 6.72266 -1.39852 -0.193553
upperneck -14.5063 -0.51869 10.2537
head -5.44334 -1.00431 3.29165
rclavicle 1.35174e-014 6.12257e-014
rhumerus -46.9348 24.4226 -90.127
rradius 61.3899
rwrist 5.70085
rhand -8.79053 -12.155
rfingers 7.12502
rthumb 17.1481 -41.4183
lclavicle 1.35174e-014 6.12257e-014
lhumerus 20.8042 -23.7612 63.2784
lradius 73.4609
lwrist 83.085
lhand -39.2935 5.11279
lfingers 7.12502
lthumb -12.2866 34.7318
rfemur -48.2917 3.05338 16.6843
rtibia 19.6998
rfoot -26.5418 -10.8277
rtoes -29.9464
lfemur -28.2136 9.93712 -27.6122
ltibia 76.1841
lfoot -31.0915 7.17257
ltoes -21.327
528
root 13.4179 15.1655 -3.2543 0.828929 -26.4583 -0.265881
lowerback 18.2784 -1.9825 2.41008
upperback 15.6084 -2.62343 -2.17015
thorax 6.56259 -1.13407 -3.37868
lowerneck 6.66451 -1.39247 -0.156316
upperneck -14.5804 -0.502135 10.254
head -5.45754 -0.999871 3.28529
rclavicle 1.59028e-014 -3.22031e-014
rhumerus -46.9573 24.2258 -90.0927
rradius 61.4215
rwrist 5.6855
rhand -8.81638 -12.1533
rfingers 7.12502
rthumb 17.1232 -41.4188
lclavicle 1.59028e-014 -3.22031e-014
lhumerus 20.8288 -23.8207 63.2584
lradius 73.5967
lwrist 83.1001
lhand -39.2405 5.14623
lfingers 7.12502
lthumb -12.2356 34.7683
rfemur -48.1617 3.29889 16.6048
rtibia 19.9374
rfoot -26.3259 -10.7252
rtoes -29.9982
lfemur -28.2344 10.1307 -27.4734
ltibia 76.5221
lfoot -31.1092 6.84477
ltoes -21.7146
529
root 13.3644 15.1513 -3.16385 1.09596 -26.425 -0.273846
lowerback 18.1287 -1.99433 2.43722
upperback 15.5578 -2.63499 -2.17199
thorax 6.57872 -1.13607 -3.39751
lowerneck 6.62471 -1.36934 -0.14832
upperneck -14.6746 -0.464405 10.2478
head -5.48205 -0.984171 3.28111
rclavicle -2.70347e-014 2.70347e-014
rhumerus -46.9501 24.1144 -90.0594
rradius 61.4422
rwrist 5.67913
rhand -8.84823 -12.1513
rfingers 7.12502
rthumb 17.0925 -41.4194
lclavicle -2.70347e-014 2.70347e-014
lhumerus 20.8249 -23.8336 63.2468
lradius 73.7421
lwrist 83.0882
lhand -39.1887 5.1504
lfingers 7.12502
lthumb -12.1856 34.7755
rfemur -48.0845 3.50519 16.5738
rtibia 20.1521
rfoot -25.9832 -10.5786
rtoes -30.2696
lfemur -28.2386 10.3021 -27.3391
ltibia 76.828
lfoot -31.1199 6.52338
ltoes -22.1137
530
root 13.3122 15.1387 -3.07432 1.37113 -26.4243 -0.279744
lowerback 18.0103 -2.00283 2.46521
upperback 15.5115 -2.64218 -2.17923
thorax 6.58398 -1.13593 -3.42231
lowerneck 6.57438 -1.34255 -0.127635
upperneck -14.7792 -0.421737 10.2276
head -5.50843 -0.965964 3.27012
rclavicle -1.11319e-014 2.14687e-014
rhumerus -46.8964 24.0445 -90.0268
rradius 61.4442
rwrist 5.68663
rhand -8.89098 -12.1507
rfingers 7.12502
rthumb 17.0514 -41.4223
lclavicle -1.11319e-014 2.14687e-014
lhumerus 20.8247 -23.8291 63.2249
lradius 73.8885
lwrist 83.0703
lhand -39.1412 5.15404
lfingers 7.12502
lthumb -12.1398 34.7818
rfemur -48.0924 3.65543 16.5959
rtibia 20.3629
rfoot -25.4901 -10.3263
rtoes -30.6589
lfemur -28.2455 10.4391 -27.2043
ltibia 77.1114
lfoot -31.1043 6.1993
ltoes -22.5266
531
root 13.2618 15.1281 -2.98645 1.65687 -26.4558 -0.276159
lowerback 17.9213 -2.0051 2.48704
upperback 15.4694 -2.64191 -2.19361
thorax 6.57969 -1.13257 -3.45147
lowerneck 6.50528 -1.31381 -0.0874627
upperneck -14.8922 -0.375955 10.1947
head -5.53452 -0.946377 3.25158
rclavicle -3.4191e-014 9.54166e-015
rhumerus -46.7868 24.0062 -89.9886
rradius 61.4252
rwrist 5.70584
rhand -8.93357 -12.1597
rfingers 7.12502
rthumb 17.0104 -41.4349
lclavicle -3.4191e-014 9.54166e-015
lhumerus 20.8396 -23.8132 63.1898
lradius 74.0292
lwrist 83.0551
lhand -39.1083 5.1202
lfingers 7.12502
lthumb -12.108 34.7499
rfemur -48.2159 3.73416 16.6623
rtibia 20.6046
rfoot -24.8527 -9.90013
rtoes -30.982
lfemur -28.2737 10.5269 -27.0798
ltibia 77.38
lfoot -31.0458 5.87444
ltoes -22.9477
532
root 13.2135 15.1197 -2.90115 1.95692 -26.5165 -0.276186
lowerback 17.8754 -2.0045 2.50488
upperback 15.4275 -2.63813 -2.20655
thorax 6.55377 -1.12859 -3.47576
lowerneck 6.42583 -1.28015 -0.0457348
upperneck -15.0147 -0.323765 10.1566
head -5.56214 -0.923568 3.23078
rclavicle 9.30312e-014 -2.42517e-014
rhumerus -46.6265 24.011 -89.9371
rradius 61.389
rwrist 5.7279
rhand -8.97587 -12.1685
rfingers 7.12502
rthumb 16.9697 -41.4472
lclavicle 9.30312e-014 -2.42517e-014
lhumerus 20.8626 -23.7805 63.1529
lradius 74.1594
lwrist 83.0533
lhand -39.0963 5.0733
lfingers 7.12502
lthumb -12.0965 34.7036
rfemur -48.4733 3.74825 16.7713
rtibia 20.9232
rfoot -24.0908 -9.29069
rtoes -31.1307
lfemur -28.3367 10.5564 -26.9524
ltibia 77.6454
lfoot -30.9305 5.5369
ltoes -23.3535
533
root 13.1676 15.1137 -2.81882 2.26176 -26.6116 -0.283781
lowerback 17.8868 -2.00421 2.51
upperback 15.3858 -2.63595 -2.21345
thorax 6.49914 -1.12789 -3.48423
lowerneck 6.34289 -1.23486 -0.020756
upperneck -15.1448 -0.257926 10.114
head -5.5921 -0.893058 3.21058
rclavicle 1.66979e-014 9.93923e-015
rhumerus -46.4239 24.074 -89.8668
rradius 61.3455
rwrist 5.73628
rhand -9.04012 -12.1682
rfingers 7.12502
rthumb 16.9078 -41.4522
lclavicle 1.66979e-014 9.93923e-015
lhumerus 20.8775 -23.7073 63.1249
lradius 74.2832
lwrist 83.0776
lhand -39.0907 5.01233
lfingers 7.12502
lthumb -12.0911 34.643
rfemur -48.8604 3.70721 16.9201
rtibia 21.3617
rfoot -23.2261 -8.53776
rtoes -30.9558
lfemur -28.4286 10.5302 -26.8191
ltibia 77.9121
lfoot -30.7521 5.19495
ltoes -23.7369
534
root 13.1239 15.11 -2.73974 2.56522 -26.7394 -0.29914
lowerback 17.9631 -1.99545 2.507
upperback 15.3516 -2.6235 -2.21601
thorax 6.42103 -1.12381 -3.48282
lowerneck 6.2361 -1.18911 0.020111
upperneck -15.2801 -0.192621 10.0548
head -5.61963 -0.862251 3.18232
rclavicle -2.22639e-014 5.1684e-015
rhumerus -46.1714 24.1478 -89.7658
rradius 61.3102
rwrist 5.72939
rhand -9.11257 -12.1642
rfingers 7.12502
rthumb 16.8381 -41.4542
lclavicle -2.22639e-014 5.1684e-015
lhumerus 20.9187 -23.6225 63.084
lradius 74.402
lwrist 83.1311
lhand -39.0892 4.98608
lfingers 7.12502
lthumb -12.0896 34.6168
rfemur -49.356 3.64307 17.0805
rtibia 21.9392
rfoot -22.2894 -7.72971
rtoes -30.2277
lfemur -28.5456 10.4484 -26.6819
ltibia 78.18
lfoot -30.5107 4.86218
ltoes -24.0872
535
root 13.0821 15.1087 -2.66333 2.86015 -26.904 -0.328157
lowerback 18.1052 -1.98764 2.48267
upperback 15.3213 -2.61485 -2.20504
thorax 6.31464 -1.12533 -3.45234
lowerneck 6.13543 -1.12922 0.0303703
upperneck -15.4213 -0.112749 9.98361
head -5.65054 -0.822032 3.15461
rclavicle -3.85642e-014 -4.45278e-014
rhumerus -45.8848 24.2756 -89.6286
rradius 61.2939
rwrist 5.69361
rhand -9.19931 -12.148
rfingers 7.12502
rthumb 16.7546 -41.4451
lclavicle -3.85642e-014 -4.45278e-014
lhumerus 20.9451 -23.4878 63.0615
lradius 74.5173
lwrist 83.191
lhand -39.0807 4.99402
lfingers 7.12502
lthumb -12.0815 34.6252
rfemur -49.9224 3.5863 17.2419
rtibia 22.6557
rfoot -21.293 -7.01971
rtoes -28.9014
lfemur -28.6675 10.3264 -26.5368
ltibia 78.4407
lfoot -30.222 4.5491
ltoes -24.3995
536
root 13.0416 15.1095 -2.58841 3.13905 -27.1116 -0.370459
lowerback 18.3021 -1.97187 2.44269
upperback 15.3035 -2.59833 -2.18527
thorax 6.19603 -1.1254 -3.40334
lowerneck 6.03506 -1.06147 0.0305385
upperneck -15.5686 -0.0249173 9.89883
head -5.68376 -0.776575 3.12387
rclavicle 2.8625e-014 -1.51076e-014
rhumerus -45.5613 24.4218 -89.4508
rradius 61.3101
rwrist 5.62894
rhand -9.2985 -12.1173
rfingers 7.12502
rthumb 16.6591 -41.4224
lclavicle 2.8625e-014 -1.51076e-014
lhumerus 20.996 -23.3282 63.0175
lradius 74.6241
lwrist 83.2608
lhand -39.0494 5.12897
lfingers 7.12502
lthumb -12.0513 34.762
rfemur -50.5179 3.55776 17.3997
rtibia 23.486
rfoot -20.2582 -6.5675
rtoes -27.1224
lfemur -28.7695 10.1865 -26.3888
ltibia 78.6814
lfoot -29.9088 4.27159
ltoes -24.6589
